<?xml version="1.0" encoding="UTF-8"?>
<!-- Generator: Adobe Illustrator 23.0.3, SVG Export Plug-In . SVG Version: 6.00 Build 0)  -->
<svg version="1.1" id="Layer_2" xmlns="http://www.w3.org/2000/svg" xmlns:xlink="http://www.w3.org/1999/xlink" x="0px" y="0px" viewBox="0 0 1254 207" style="enable-background:new 0 0 1254 207;" xml:space="preserve">
<style type="text/css">
	.st0{fill:#47E500;}
	.st1{fill:#FFFFFF;}
</style>
<g>
	<path class="st0" d="M28.5,159.5V85.3H3.6V62.8h26.5v-39h24.4v39h40.3v22.5H54.5v73.9c0,12.3,5,17.6,17,17.6h21.7v22.8h-22   C45.5,199.5,28.5,187.7,28.5,159.5z"/>
	<path class="st0" d="M129.4,62.8h25.7v21.5h1.8c4.7-11.5,18.1-24.9,36.7-24.9h9.7v25.9h-13.1c-23.6,0-34.8,18.1-34.8,44v70.2h-25.9   V62.8z"/>
	<path class="st0" d="M219.2,131.4c0-43.2,30.7-72,67.3-72c41.7,0,66,29.6,66,70.5v8.1H246c0.3,26.7,16.5,42.4,41.9,42.4   c17,0,33-9.4,37.7-26.5l24.4,6c-8.4,27-32.2,43-62.1,43C246.2,202.9,219.2,173.3,219.2,131.4z M326.1,118.3   c-1.3-23.3-18.9-36.2-39.6-36.2c-21,0-38.5,15.2-40.3,36.2H326.1z"/>
	<path class="st0" d="M402.9,85.3H378V62.8h50.8v136.8h-25.9V85.3z M398.7,22.4c0-9.4,7.3-17,17.3-17c10.2,0,17.6,7.6,17.6,17   c0,10-7.3,17.6-17.6,17.6C406.1,40,398.7,32.4,398.7,22.4z"/>
	<path class="st0" d="M475.7,62.8h25.9v17.8h2.1c5.8-11.5,19.4-21.2,39.3-21.2c30.9,0,50,23.1,50,52.4v87.8h-25.9v-83.3   c0-19.4-14.1-32.5-31.4-32.5c-19.1,0-34.1,14.9-34.1,34.8v81h-25.9V62.8z"/>
	<path class="st0" d="M623.8,131.2c0-41.1,26.5-71.8,64.2-71.8c26.5,0,39,15.7,44.3,23.1h2.1V62.8h25.9v106.9c0,4.2,2.6,6.3,6.8,6.3   h6.3v23.6h-18.6c-11.3,0-19.9-7.1-19.9-18.9H733c-4.7,6.5-16.2,22.3-43.5,22.3C651.5,202.9,623.8,172.8,623.8,131.2z M735.1,131.4   c0-30.4-19.4-47.9-42.7-47.9c-24.4,0-42.4,19.9-42.4,47.9c0,28.8,18.9,47.7,42.7,47.7C718.6,179.1,735.1,157.4,735.1,131.4z"/>
	<path class="st1" d="M795.6,130.4c0-40.3,26.7-72.3,62.4-72.3c21.2,0,32.7,9.4,39.3,17.6h2.9V3h38.3v196.5h-38.3v-12.8h-2.9   c-6.5,8.6-17.6,16.2-37.2,16.2C824.5,202.9,795.6,171.8,795.6,130.4z M900.7,130.6c0-22.8-15.2-36.2-33.3-36.2   c-18.6,0-33,14.4-33,36.2c0,21.7,14.9,36.2,33.3,36.2C887.6,166.8,900.7,150,900.7,130.6z"/>
	<path class="st1" d="M960.7,130.6c0-43.2,32-72.6,70.5-72.6c42.4,0,68.9,31.4,68.9,72.3v9.7H1000c0.3,18.1,13.6,29.1,31.7,29.1   c12.6,0,24.6-5,29.9-16.5l34.1,7.9c-10,30.9-36.7,42.4-63.4,42.4C990,202.9,960.7,172.3,960.7,130.6z M1061.6,114.7   c-1.8-13.9-14.1-24.9-30.4-24.9c-17.8,0-29.1,12.6-30.9,24.9H1061.6z"/>
	<path class="st1" d="M1109.2,61.5h41.1l27.8,101.7h2.9l28-101.7h41.4l-44.3,138.1h-52.4L1109.2,61.5z"/>
</g>
</svg>